<?xml version="1.0" encoding="utf-8"?>
<!-- Generator: Adobe Illustrator 18.1.1, SVG Export Plug-In . SVG Version: 6.00 Build 0)  -->
<svg version="1.1" id="Layer_1" xmlns="http://www.w3.org/2000/svg" xmlns:xlink="http://www.w3.org/1999/xlink" x="0px" y="0px"
	 viewBox="0 0 457.2 183.6" width="457.2" height="183.6" enable-background="new 0 0 457.2 183.6" xml:space="preserve">
<polygon fill-rule="evenodd" clip-rule="evenodd" fill="#004B84" points="3.4,136.4 19,136.4 26.7,162.1 34.5,136.4 50.2,136.4 
	50.2,179.3 40.3,179.3 40.3,143.5 29.3,179.3 22.4,179.3 11.9,143.9 11.9,179.3 3.4,179.3 "/>
<path fill-rule="evenodd" clip-rule="evenodd" fill="#004B84" d="M73.5,165.8l-3.6-12.3l-3.7,12.3H73.5z M77.6,179.3l-2.1-7.2H64.1
	l-2.1,7.2h-7l11.1-34.7h9.4l10.7,34.7H77.6z"/>
<g>
	<path fill="#004B84" d="M98.3,165.6l0,13.8H90v-34.7h15.3c2.8,0,5,0.3,6.6,1.1c1.7,0.9,3.3,1.8,4.4,3.5c1.1,1.7,1.6,3.7,1.6,5.8
		c0,4.2-2.2,8-5.9,8.8l6.5,15.5h-9.1l-5.3-13.8H98.3z M98.2,150.9v8.6h5c1.6,0,2.9,0,3.6-0.3c0.7-0.2,1.3-0.6,1.9-1.4
		c0.6-0.8,1-1.7,1-2.7c0-1-0.4-1.8-0.9-2.6c-0.6-0.8-1.3-1.3-2-1.5c-0.7-0.2-2-0.2-3.8-0.2H98.2z"/>
	<rect x="123.4" y="144.6" fill-rule="evenodd" clip-rule="evenodd" fill="#004B84" width="8.3" height="34.7"/>
	<polygon fill-rule="evenodd" clip-rule="evenodd" fill="#004B84" points="138.4,144.6 147.2,144.6 158.8,165 159,165 159,144.6 
		165.3,144.6 165.3,179.3 158.4,179.3 145,156.1 145,179.3 138.4,179.3 	"/>
	<polygon fill-rule="evenodd" clip-rule="evenodd" fill="#004B84" points="172,144.6 196.7,144.6 196.7,151.4 180.2,151.4 
		180.2,158.6 193.2,158.6 193.2,165 180.2,165 180.2,172.7 196.7,172.7 196.7,179.3 172,179.3 	"/>
	<rect x="217.2" y="136.4" fill-rule="evenodd" clip-rule="evenodd" fill="#004B84" width="10" height="42.9"/>
	<polygon fill-rule="evenodd" clip-rule="evenodd" fill="#004B84" points="235.1,144.6 243.9,144.6 255.4,165 255.6,165 
		255.6,144.6 261.9,144.6 261.9,179.3 254.9,179.3 241.6,156.1 241.6,179.3 235.1,179.3 	"/>
	<path fill="#004B84" d="M292.9,152.3l-6.8,2.2c-1.1-2.7-3.2-4-5.9-4c-3.2,0-4.8,1-4.8,3.1c0,0.8,0.3,1.5,0.9,2.1
		c0.6,0.6,2,1.2,4.1,1.7c3.5,0.7,6.1,1.3,7.8,2c1.6,0.7,3,1.9,4.1,3.5c1.1,1.6,1.6,3.4,1.6,5.4c0,3.1-0.9,5.8-3.3,8.1
		c-2.4,2.3-6,3.5-10.7,3.5c-3.6,0-6.8-0.7-9.3-2.4c-2.5-1.6-4.2-4-5-7.2l7.5-1.8c0.8,3.2,3.8,5.1,7.3,5.1c1.9,0,3.2-0.7,4.2-1.4
		c0.9-0.7,1.4-1.4,1.4-2.4c0-1-0.4-1.8-1.2-2.4c-0.8-0.6-2.4-1.2-4.8-1.7c-4.4-0.9-7.7-2.3-9.6-3.8c-1.9-1.6-2.8-3.9-2.8-6.9
		c0-3.1,1.2-5.7,3.5-7.8c2.2-2.1,5.3-3.2,9.1-3.2C286.7,144.1,290.7,147,292.9,152.3"/>
	<polygon fill-rule="evenodd" clip-rule="evenodd" fill="#004B84" points="305.4,151.4 296.6,151.4 296.6,144.6 322,144.6 
		322,151.4 313.3,151.4 313.3,179.3 305.4,179.3 	"/>
	<rect x="326.1" y="144.6" fill-rule="evenodd" clip-rule="evenodd" fill="#004B84" width="8.2" height="34.7"/>
	<polygon fill-rule="evenodd" clip-rule="evenodd" fill="#004B84" points="347.7,151.4 338.9,151.4 338.9,144.6 364.3,144.6 
		364.3,151.4 355.7,151.4 355.7,179.3 347.7,179.3 	"/>
	<path fill="#004B84" d="M395.6,144.6v21.6c0,3.5-0.4,6.1-1.2,7.8c-0.8,1.7-2.3,3.1-4.4,4.2c-2.1,1.1-4.9,1.7-8.2,1.7
		c-3.3,0-6-0.6-8-1.6c-2-1-3.9-2.7-4.9-4.5c-1-1.8-1.1-4.2-1.1-7.7v-21.6h9v21.6c0,1.9,0.1,3.2,0.4,4.1c0.3,0.9,0.9,1.6,1.9,2.1
		c0.9,0.5,2.1,0.8,3.5,0.8c1.5,0,2.8-0.3,3.7-0.8c1-0.5,1.6-1.2,1.9-2c0.3-0.8,0.3-2.2,0.3-4.2v-21.6H395.6z"/>
	<polygon fill-rule="evenodd" clip-rule="evenodd" fill="#004B84" points="408.2,151.4 399.4,151.4 399.4,144.6 424.9,144.6 
		424.9,151.4 416.2,151.4 416.2,179.3 408.2,179.3 	"/>
	<polygon fill-rule="evenodd" clip-rule="evenodd" fill="#004B84" points="429,144.6 453.8,144.6 453.8,151.4 437.2,151.4 
		437.2,158.6 450.3,158.6 450.3,165 437.2,165 437.2,172.7 453.8,172.7 453.8,179.3 429,179.3 	"/>
	<path fill-rule="evenodd" clip-rule="evenodd" fill="#004B84" d="M176.3,95.1c-0.8-0.1-1.6-0.2-2.3-0.3c2.4-13.8,8.5-47.9,8.5-47.9
		l-21.6,44.1c0,0-1.3-0.4-1.9-0.6c-1.5-0.5-3.1-0.9-4.6-1.3c-5.5-1.5-11.5-1.6-16.9,0.7c-2.8,1.2-4.9,2.5-7.3,4.9
		c4.6-9.3,44.6-91,44.6-91h45.7l-7.4,42l32.6-42h22.1c0,0-3.1,6.3-4.4,9.2c-0.5,1.1-1,2.5-0.8,3.8c0.3,1.5,2.7,1,3.8,1
		c2.8,0.1,5.6,0.2,7.2,1c0.5,0.3,0.4,0.9,0.3,1.3c-0.2,1.6-2.5,7-3,8.3c-5.9,13.2-10.3,22.8-15.8,34c-2.6,5.2-4.9,10.2-7.6,15.7
		c-1.5,3.2-3.4,4.6-7,4.9c-1.5,0.1-2.9,0.1-4.4,0.1c-0.7,0-1.6,0-2.5-0.1c-0.6,0-1.2-0.2-1.7,0.2c-0.7,0.6-1.3,1.7-1.6,2.5
		l-5.6,12.6c-0.6,0.1-1.2,0.2-1.4,0.2c-1.1,0.2-2.4,0.1-3.5-0.1c-2.7-0.5-4-1.2-7.2-2.2l23.1-47.2l-34.1,43.6
		c-5.9-1.7-12.7-2-18.6-0.5C180.4,92.6,178.2,93.7,176.3,95.1"/>
	<path fill-rule="evenodd" clip-rule="evenodd" fill="#004B84" d="M323.9,14.1c-3-0.1-6-0.2-8.9,0.4c-3,0.6-5.5,2.1-7.2,4.6
		c-2.4,3.5-4,7.6-5.8,11.6l-19.8,43.1c-1.3,2.8-3.1,6.2-3.1,8.8c0,4.7,8.3,4.3,11.3,4.3l-1.5,3.3c-1.4,0.6-3.6,1.4-4.9,1.6
		c-2.8,0.5-5.8,0.8-8.6,0.8c-6.3,0-12.4-1.1-18.5-1.2c-4.7-0.1-9.4,0.5-13.8,2.2c-1.1,0.4-2.2,0.9-3.2,1.4c-0.8,0.4-1.3,0.8-2,1.2
		h-8.6l4.3-9.4l4,0c1.3,0,2.7,0,4-0.2c5.7-0.7,8.1-4.2,10.5-9.4l24.3-53c1.1-2.3,2.5-5.9,0.3-8c-2-1.8-5.5-2-8.1-2.2
		c-0.5,0-1,0-1.4-0.1c1.4-3,4.2-9.2,4.2-9.2h56.9L323.9,14.1z"/>
	<path fill-rule="evenodd" clip-rule="evenodd" fill="#008B9A" d="M298.2,90.1c-0.4-0.7-0.9,0.4-1.2,0.8c-0.5,0.6-0.6,0.9-1.5,1.7
		c-1.1,1-2.3,1.7-3.7,2.2c-2.6,0.9-5.4,1.2-8.2,1.2c-7.1,0.1-11.6-0.8-17.6-1.5c-5.9-0.8-12-0.9-17.6,0.9c-2.6,0.8-5.2,2.3-7.2,4.2
		c-0.6,0.6-1.5,1.5-2.1,2.3c-0.3,0.3-0.5,0.6-0.6,1c-0.3,0.7,1.1,0.2,1.4,0.2c0.8-0.1,1.6-0.2,2.4-0.2c11.7-0.2,23.1,3.2,34.9,3.7
		c5.1,0.2,10.3-0.5,14.7-3.2c2.1-1.3,3.9-3.5,5-5.8C298.1,95,298.1,92.7,298.2,90.1"/>
	<path fill-rule="evenodd" clip-rule="evenodd" fill="#008B9A" d="M186.4,102.9c-0.2-0.3-0.9-0.1-1.5-0.2c-0.7,0-2.1-0.2-2.8-0.3
		c-1.3-0.2-2.6-0.5-3.8-0.9c-2.9-0.9-5.6-1.9-8.3-3c-5.5-2.2-10.8-4.5-16.5-5.9c-6.3-1.5-12.1-1.9-17.6,0.7
		c-5.5,2.6-9.9,6.7-13.3,11.7c-0.3,0.4-0.7,1-0.9,1.5c-0.3,0.4,0.1,0.8,0.6,0.4c1.1-0.9,2.3-1.7,3.6-2.4c2.5-1.4,5.6-2.1,8.4-2.5
		c5.9-0.8,11.6,0.3,17.2,2.2c5.5,1.9,12.5,4.7,19,5.2c3.6,0.3,7.1-0.1,10.6-1.8c2.3-1.1,3.7-2.5,4.6-3.5
		C185.9,103.7,186.6,103.2,186.4,102.9"/>
	<path fill-rule="evenodd" clip-rule="evenodd" fill="#008B9A" d="M239.7,97c-0.2-0.2-0.9,0.4-1.5,0.9c-0.8,0.6-1.6,1.1-1.9,1.3
		c-1.2,0.7-2.6,1.2-3.9,1.7c-2.7,0.9-5.5,1.2-8.4,1.2c-5.8,0-11.4-2.4-16.7-4.4c-5.4-2.1-11-3.9-16.8-4.5c-2.9-0.3-4.9-0.1-7.9,1.1
		c-1.2,0.5-2.4,1-3.7,1.7c-1.3,0.7-3.1,1.5-1.2,1.8c5.5,0.7,10.9,3.6,16,6.2c5.3,2.7,10.8,5.7,16.6,7c3,0.7,5.6,1.1,8.9,0.9
		c2.9-0.2,5.7-1.2,8.2-2.5c5.1-2.5,9.3-7.1,12.3-11.8C239.8,97.4,239.8,97.1,239.7,97"/>
</g>
</svg>
